<svg width="255" height="50" viewBox="0 0 255 50" fill="none" xmlns="http://www.w3.org/2000/svg">
<g clip-path="url(#clip0_12_232)">
<path fill-rule="evenodd" clip-rule="evenodd" d="M50.6037 0.903614C50.6037 0.404562 50.1942 0 49.6892 0H0.914525C0.409446 0 0 0.404562 0 0.903614V12.1257C0 12.3654 0.0963513 12.5952 0.267858 12.7647L37.6849 49.7353C37.8564 49.9048 38.089 50 38.3316 50H49.6892C50.1942 50 50.6037 49.5954 50.6037 49.0964V37.8743C50.6037 37.6346 50.5074 37.4048 50.3358 37.2353L26.863 14.0425C26.2869 13.4733 26.695 12.5 27.5097 12.5H49.6892C50.1942 12.5 50.6037 12.0954 50.6037 11.5964V0.903614Z" fill="white"/>
<path d="M0.914525 50C0.409447 50 0 49.5954 0 49.0964V39.6816C0 38.8765 0.985073 38.4734 1.56119 39.0426L11.0898 48.4575C11.6658 49.0267 11.2578 50 10.443 50H0.914525Z" fill="white"/>
<path d="M0.914505 0.0375977H49.6892C50.1732 0.0375977 50.5656 0.425303 50.5656 0.903562V11.5963C50.5656 12.0746 50.1732 12.4623 49.6892 12.4623H27.5097C26.661 12.4623 26.2359 13.4762 26.8361 14.0691L50.3089 37.2619C50.4732 37.4243 50.5656 37.6446 50.5656 37.8743V49.0963C50.5656 49.5746 50.1732 49.9623 49.6892 49.9623H38.3316C38.0992 49.9623 37.8762 49.871 37.7119 49.7087L0.294783 12.738C0.130422 12.5756 0.0380859 12.3553 0.0380859 12.1256V0.903562C0.0380859 0.425303 0.430473 0.0375977 0.914505 0.0375977ZM0.0380859 49.0963V39.6815C0.0380859 38.91 0.982112 38.5236 1.53423 39.0691L11.0628 48.484C11.6149 49.0295 11.2239 49.9623 10.443 49.9623H0.914505C0.430473 49.9623 0.0380859 49.5746 0.0380859 49.0963Z" stroke="white"/>
<path d="M76.0125 23.4188C74.7932 23.4188 73.7415 23.1929 72.8574 22.7411C71.9734 22.2742 71.196 21.6266 70.5254 20.7983L71.6914 19.6688C72.2249 20.4067 72.8422 20.9564 73.5433 21.3179C74.2597 21.6793 75.1056 21.86 76.0811 21.86C77.0871 21.86 77.9026 21.6341 78.5275 21.1823C79.1524 20.7305 79.4649 20.1055 79.4649 19.3073C79.4649 18.6899 79.3201 18.1853 79.0305 17.7938C78.7409 17.3872 78.3598 17.0634 77.8873 16.8224C77.4301 16.5664 76.9194 16.3405 76.3555 16.1447C75.7915 15.9489 75.2276 15.7456 74.6636 15.5347C74.1149 15.3088 73.6043 15.0302 73.1318 14.6989C72.6593 14.3676 72.2782 13.9459 71.9886 13.4338C71.7143 12.9218 71.5771 12.2667 71.5771 11.4685C71.5771 10.6251 71.7829 9.90221 72.1944 9.2998C72.6059 8.6974 73.1699 8.23806 73.8863 7.92179C74.6026 7.59047 75.4181 7.4248 76.3326 7.4248C77.3538 7.4248 78.2607 7.62059 79.0533 8.01215C79.8612 8.40372 80.5318 8.93083 81.0653 9.59348L79.9221 10.723C79.4344 10.1507 78.9009 9.71396 78.3217 9.41276C77.7425 9.11155 77.0642 8.96095 76.2869 8.96095C75.3724 8.96095 74.6408 9.17179 74.092 9.59348C73.5433 10.0152 73.269 10.6025 73.269 11.3555C73.269 11.9429 73.4061 12.4173 73.6805 12.7787C73.9701 13.1402 74.3512 13.4414 74.8237 13.6823C75.2962 13.9233 75.8068 14.1417 76.3555 14.3375C76.9194 14.5182 77.4834 14.7215 78.0474 14.9474C78.6113 15.1733 79.1219 15.4594 79.5792 15.8058C80.0517 16.1522 80.4327 16.5965 80.7223 17.1387C81.0119 17.6658 81.1567 18.3435 81.1567 19.1718C81.1567 20.5122 80.6919 21.5588 79.7621 22.3119C78.8476 23.0498 77.5977 23.4188 76.0125 23.4188ZM92.6211 23.4188C91.4779 23.4188 90.4567 23.1703 89.5574 22.6733C88.6734 22.1613 87.9722 21.4685 87.454 20.595C86.9358 19.7064 86.6767 18.7125 86.6767 17.6131V7.65071H88.3685V17.5227C88.3685 18.3962 88.5514 19.1567 88.9172 19.8043C89.2831 20.4519 89.786 20.9489 90.4262 21.2953C91.0816 21.6417 91.8132 21.8149 92.6211 21.8149C93.4289 21.8149 94.1453 21.6417 94.7702 21.2953C95.4104 20.9489 95.9134 20.4594 96.2792 19.8269C96.6602 19.1793 96.8507 18.4188 96.8507 17.5453V7.65071H98.5198V17.6356C98.5198 18.735 98.2606 19.7215 97.7424 20.595C97.2394 21.4685 96.5383 22.1613 95.639 22.6733C94.755 23.1703 93.749 23.4188 92.6211 23.4188ZM111.752 23.4188C110.624 23.4188 109.573 23.2155 108.597 22.8088C107.637 22.4022 106.798 21.8299 106.082 21.092C105.366 20.354 104.809 19.5031 104.413 18.5393C104.032 17.5603 103.842 16.5137 103.842 15.3992C103.842 14.2847 104.032 13.2456 104.413 12.2817C104.809 11.3028 105.358 10.4519 106.059 9.72902C106.776 9.00613 107.614 8.44137 108.574 8.03474C109.534 7.62812 110.571 7.4248 111.684 7.4248C112.888 7.4248 113.962 7.63565 114.907 8.05733C115.868 8.47902 116.706 9.05884 117.422 9.79679L116.279 10.9263C115.73 10.3239 115.067 9.85703 114.29 9.52571C113.513 9.17932 112.644 9.00613 111.684 9.00613C110.8 9.00613 109.984 9.16426 109.237 9.48053C108.506 9.79679 107.858 10.2486 107.294 10.8359C106.745 11.4082 106.318 12.0859 106.014 12.8691C105.724 13.6372 105.579 14.4805 105.579 15.3992C105.579 16.3179 105.732 17.1688 106.036 17.9519C106.341 18.735 106.768 19.4203 107.317 20.0076C107.865 20.5799 108.513 21.0242 109.26 21.3405C110.007 21.6567 110.822 21.8149 111.706 21.8149C112.712 21.8149 113.604 21.6417 114.381 21.2953C115.174 20.9489 115.845 20.4745 116.393 19.8721L117.537 21.0242C116.835 21.7622 115.997 22.3495 115.022 22.7863C114.046 23.2079 112.956 23.4188 111.752 23.4188ZM129.244 23.4188C128.116 23.4188 127.064 23.2155 126.089 22.8088C125.129 22.4022 124.29 21.8299 123.574 21.092C122.858 20.354 122.301 19.5031 121.905 18.5393C121.524 17.5603 121.333 16.5137 121.333 15.3992C121.333 14.2847 121.524 13.2456 121.905 12.2817C122.301 11.3028 122.85 10.4519 123.551 9.72902C124.267 9.00613 125.106 8.44137 126.066 8.03474C127.026 7.62812 128.063 7.4248 129.175 7.4248C130.38 7.4248 131.454 7.63565 132.399 8.05733C133.359 8.47902 134.198 9.05884 134.914 9.79679L133.771 10.9263C133.222 10.3239 132.559 9.85703 131.782 9.52571C131.004 9.17932 130.136 9.00613 129.175 9.00613C128.291 9.00613 127.476 9.16426 126.729 9.48053C125.997 9.79679 125.35 10.2486 124.786 10.8359C124.237 11.4082 123.81 12.0859 123.505 12.8691C123.216 13.6372 123.071 14.4805 123.071 15.3992C123.071 16.3179 123.223 17.1688 123.528 17.9519C123.833 18.735 124.26 19.4203 124.809 20.0076C125.357 20.5799 126.005 21.0242 126.752 21.3405C127.499 21.6567 128.314 21.8149 129.198 21.8149C130.204 21.8149 131.096 21.6417 131.873 21.2953C132.666 20.9489 133.336 20.4745 133.885 19.8721L135.028 21.0242C134.327 21.7622 133.489 22.3495 132.513 22.7863C131.538 23.2079 130.448 23.4188 129.244 23.4188ZM140.249 23.1929V7.65071H141.918V23.1929H140.249ZM141.346 23.1929V21.6793H150.606V23.1929H141.346ZM141.346 15.964V14.4956H149.874V15.964H141.346ZM141.346 9.16426V7.65071H150.469V9.16426H141.346ZM159.941 23.4188C158.721 23.4188 157.67 23.1929 156.786 22.7411C155.902 22.2742 155.124 21.6266 154.454 20.7983L155.62 19.6688C156.153 20.4067 156.77 20.9564 157.472 21.3179C158.188 21.6793 159.034 21.86 160.009 21.86C161.015 21.86 161.831 21.6341 162.456 21.1823C163.081 20.7305 163.393 20.1055 163.393 19.3073C163.393 18.6899 163.248 18.1853 162.959 17.7938C162.669 17.3872 162.288 17.0634 161.816 16.8224C161.358 16.5664 160.848 16.3405 160.284 16.1447C159.72 15.9489 159.156 15.7456 158.592 15.5347C158.043 15.3088 157.533 15.0302 157.06 14.6989C156.588 14.3676 156.206 13.9459 155.917 13.4338C155.643 12.9218 155.505 12.2667 155.505 11.4685C155.505 10.6251 155.711 9.90221 156.123 9.2998C156.534 8.6974 157.098 8.23806 157.814 7.92179C158.531 7.59047 159.346 7.4248 160.261 7.4248C161.282 7.4248 162.189 7.62059 162.982 8.01215C163.789 8.40372 164.46 8.93083 164.994 9.59348L163.85 10.723C163.363 10.1507 162.829 9.71396 162.25 9.41276C161.671 9.11155 160.992 8.96095 160.215 8.96095C159.301 8.96095 158.569 9.17179 158.02 9.59348C157.472 10.0152 157.197 10.6025 157.197 11.3555C157.197 11.9429 157.334 12.4173 157.609 12.7787C157.898 13.1402 158.279 13.4414 158.752 13.6823C159.224 13.9233 159.735 14.1417 160.284 14.3375C160.848 14.5182 161.412 14.7215 161.976 14.9474C162.54 15.1733 163.05 15.4594 163.507 15.8058C163.98 16.1522 164.361 16.5965 164.651 17.1387C164.94 17.6658 165.085 18.3435 165.085 19.1718C165.085 20.5122 164.62 21.5588 163.69 22.3119C162.776 23.0498 161.526 23.4188 159.941 23.4188ZM174.485 23.4188C173.265 23.4188 172.214 23.1929 171.33 22.7411C170.446 22.2742 169.668 21.6266 168.998 20.7983L170.164 19.6688C170.697 20.4067 171.314 20.9564 172.016 21.3179C172.732 21.6793 173.578 21.86 174.553 21.86C175.559 21.86 176.375 21.6341 177 21.1823C177.625 20.7305 177.937 20.1055 177.937 19.3073C177.937 18.6899 177.792 18.1853 177.503 17.7938C177.213 17.3872 176.832 17.0634 176.36 16.8224C175.902 16.5664 175.392 16.3405 174.828 16.1447C174.264 15.9489 173.7 15.7456 173.136 15.5347C172.587 15.3088 172.077 15.0302 171.604 14.6989C171.132 14.3676 170.75 13.9459 170.461 13.4338C170.186 12.9218 170.049 12.2667 170.049 11.4685C170.049 10.6251 170.255 9.90221 170.667 9.2998C171.078 8.6974 171.642 8.23806 172.358 7.92179C173.075 7.59047 173.89 7.4248 174.805 7.4248C175.826 7.4248 176.733 7.62059 177.526 8.01215C178.333 8.40372 179.004 8.93083 179.538 9.59348L178.394 10.723C177.907 10.1507 177.373 9.71396 176.794 9.41276C176.215 9.11155 175.536 8.96095 174.759 8.96095C173.845 8.96095 173.113 9.17179 172.564 9.59348C172.016 10.0152 171.741 10.6025 171.741 11.3555C171.741 11.9429 171.878 12.4173 172.153 12.7787C172.442 13.1402 172.823 13.4414 173.296 13.6823C173.768 13.9233 174.279 14.1417 174.828 14.3375C175.392 14.5182 175.956 14.7215 176.52 14.9474C177.084 15.1733 177.594 15.4594 178.051 15.8058C178.524 16.1522 178.905 16.5965 179.195 17.1387C179.484 17.6658 179.629 18.3435 179.629 19.1718C179.629 20.5122 179.164 21.5588 178.234 22.3119C177.32 23.0498 176.07 23.4188 174.485 23.4188ZM193.36 16.9579V15.4896H198.001C198.641 15.4896 199.213 15.3616 199.716 15.1055C200.234 14.8495 200.638 14.4881 200.927 14.0212C201.232 13.5393 201.385 12.967 201.385 12.3043C201.385 11.6417 201.232 11.0769 200.927 10.61C200.638 10.1281 200.234 9.75914 199.716 9.50312C199.213 9.23203 198.641 9.09649 198.001 9.09649H193.36V7.65071H198.115C199.06 7.65071 199.906 7.84649 200.653 8.23806C201.4 8.61456 201.987 9.1492 202.414 9.84197C202.856 10.5347 203.077 11.3555 203.077 12.3043C203.077 13.2381 202.856 14.0588 202.414 14.7667C201.987 15.4594 201.4 16.0016 200.653 16.3932C199.906 16.7697 199.06 16.9579 198.115 16.9579H193.36ZM192.285 23.1929V7.65071H193.954V23.1929H192.285ZM205.752 23.1929L212.2 7.65071H213.457L219.836 23.1929H218.03L212.474 9.45794H213.137L207.536 23.1929H205.752ZM208.702 19.1492V17.6808H216.932V19.1492H208.702ZM230.895 23.4188C229.767 23.4188 228.715 23.2155 227.74 22.8088C226.78 22.4022 225.941 21.8299 225.225 21.092C224.509 20.354 223.952 19.5031 223.556 18.5393C223.175 17.5603 222.984 16.5137 222.984 15.3992C222.984 14.2847 223.175 13.2456 223.556 12.2817C223.952 11.3028 224.501 10.4519 225.202 9.72902C225.918 9.00613 226.757 8.44137 227.717 8.03474C228.677 7.62812 229.714 7.4248 230.826 7.4248C232.03 7.4248 233.105 7.63565 234.05 8.05733C235.01 8.47902 235.849 9.05884 236.565 9.79679L235.422 10.9263C234.873 10.3239 234.21 9.85703 233.433 9.52571C232.655 9.17932 231.787 9.00613 230.826 9.00613C229.942 9.00613 229.127 9.16426 228.38 9.48053C227.648 9.79679 227.001 10.2486 226.437 10.8359C225.888 11.4082 225.461 12.0859 225.156 12.8691C224.867 13.6372 224.722 14.4805 224.722 15.3992C224.722 16.3179 224.874 17.1688 225.179 17.9519C225.484 18.735 225.911 19.4203 226.459 20.0076C227.008 20.5799 227.656 21.0242 228.403 21.3405C229.15 21.6567 229.965 21.8149 230.849 21.8149C231.855 21.8149 232.747 21.6417 233.524 21.2953C234.317 20.9489 234.987 20.4745 235.536 19.8721L236.679 21.0242C235.978 21.7622 235.14 22.3495 234.164 22.7863C233.189 23.2079 232.099 23.4188 230.895 23.4188ZM251.869 23.1929L243.272 15.0829L251.686 7.65071H253.926L244.964 15.5347L244.987 14.5859L254.155 23.1929H251.869ZM241.9 23.1929V7.65071H243.569V23.1929H241.9ZM72.1715 43.5242V42.8465H77.2243C78.5961 42.8465 79.8078 42.5453 80.8595 41.9429C81.9265 41.3405 82.7572 40.5197 83.3516 39.4805C83.946 38.4263 84.2433 37.2215 84.2433 35.8661C84.2433 34.5257 83.946 33.3359 83.3516 32.2968C82.7572 31.2426 81.9265 30.4218 80.8595 29.8344C79.8078 29.232 78.5961 28.9308 77.2243 28.9308H72.263V28.2531H77.2243C78.3674 28.2531 79.4115 28.4414 80.3565 28.8179C81.3015 29.1944 82.1246 29.7215 82.8258 30.3992C83.5269 31.0769 84.068 31.8826 84.449 32.8164C84.8301 33.7501 85.0206 34.7742 85.0206 35.8887C85.0206 36.9881 84.8301 38.0046 84.449 38.9384C84.068 39.8721 83.5269 40.6853 82.8258 41.3781C82.1399 42.0558 81.3244 42.5829 80.3794 42.9594C79.4344 43.3359 78.3979 43.5242 77.27 43.5242H72.1715ZM71.92 43.5242V28.2531H72.6517V43.5242H71.92ZM96.161 37.0182L89.9194 28.2531H90.8111L96.3211 36.0016H96.0925L101.671 28.2531H102.494L96.2068 37.0182H96.161ZM95.841 43.5242V36.2727H96.5726V43.5242H95.841ZM107.55 43.5242V28.2531H108.099L108.282 29.2019V43.5242H107.55ZM118.227 43.5242L107.939 29.2245L108.099 28.2531L118.387 42.5528L118.227 43.5242ZM118.227 43.5242L118.044 42.5754V28.2531H118.776V43.5242H118.227ZM124.479 43.5242L130.767 28.2531H131.453L137.694 43.5242H136.894L130.927 28.8856H131.27L125.257 43.5242H124.479ZM127.109 38.4866V37.8314H135.088V38.4866H127.109ZM143.202 43.5242V28.2531H143.751L150.678 39.4579H150.175L157.103 28.2531H157.651V43.5242H156.92V29.473L157.103 29.5182L150.701 39.8872H150.152L143.751 29.5182L143.934 29.473V43.5242H143.202ZM164.467 43.5242V28.2531H165.199V43.5242H164.467ZM179.019 43.7501C177.921 43.7501 176.9 43.5543 175.955 43.1628C175.01 42.7561 174.187 42.1914 173.486 41.4685C172.785 40.7456 172.236 39.9097 171.84 38.961C171.458 37.9971 171.268 36.9655 171.268 35.8661C171.268 34.7516 171.458 33.72 171.84 32.7712C172.221 31.8224 172.754 30.9941 173.44 30.2863C174.141 29.5784 174.956 29.0287 175.886 28.6372C176.816 28.2305 177.822 28.0272 178.904 28.0272C180.017 28.0272 181.053 28.2381 182.014 28.6597C182.974 29.0814 183.805 29.6688 184.506 30.4218L183.98 30.9414C183.37 30.2486 182.623 29.7064 181.739 29.3149C180.87 28.9233 179.925 28.7275 178.904 28.7275C177.929 28.7275 177.022 28.9082 176.183 29.2697C175.36 29.6311 174.636 30.1356 174.011 30.7832C173.387 31.4308 172.899 32.1914 172.548 33.0649C172.213 33.9233 172.045 34.857 172.045 35.8661C172.045 36.8751 172.221 37.8164 172.571 38.6899C172.922 39.5634 173.402 40.3314 174.011 40.9941C174.636 41.6417 175.368 42.1462 176.206 42.5076C177.06 42.8691 177.974 43.0498 178.95 43.0498C179.986 43.0498 180.947 42.854 181.831 42.4625C182.73 42.0558 183.484 41.5061 184.094 40.8134L184.62 41.3329C183.934 42.086 183.111 42.6808 182.151 43.1176C181.191 43.5393 180.146 43.7501 179.019 43.7501ZM194.369 43.7501C193.18 43.7501 192.143 43.5242 191.259 43.0724C190.375 42.6055 189.621 41.973 188.996 41.1748L189.522 40.6778C190.162 41.5363 190.886 42.1537 191.694 42.5302C192.502 42.8917 193.409 43.0724 194.415 43.0724C195.542 43.0724 196.465 42.8013 197.181 42.2591C197.897 41.717 198.256 40.964 198.256 40.0001C198.256 39.2772 198.103 38.6899 197.798 38.2381C197.509 37.7712 197.12 37.3947 196.632 37.1085C196.145 36.8224 195.611 36.5739 195.032 36.3631C194.453 36.1372 193.873 35.9188 193.294 35.7079C192.715 35.482 192.182 35.2109 191.694 34.8947C191.206 34.5634 190.81 34.1492 190.505 33.6522C190.215 33.1402 190.071 32.4926 190.071 31.7094C190.071 30.9715 190.246 30.3314 190.596 29.7893C190.962 29.232 191.465 28.8028 192.105 28.5016C192.746 28.1853 193.492 28.0272 194.346 28.0272C195.337 28.0272 196.221 28.2155 196.998 28.592C197.775 28.9685 198.438 29.5106 198.987 30.2185L198.461 30.7155C197.943 30.0679 197.349 29.5709 196.678 29.2245C196.023 28.8781 195.245 28.7049 194.346 28.7049C193.31 28.7049 192.464 28.9685 191.808 29.4956C191.153 30.0227 190.825 30.7531 190.825 31.6869C190.825 32.3646 190.97 32.9218 191.259 33.3585C191.564 33.7802 191.961 34.1341 192.448 34.4203C192.936 34.6914 193.47 34.9323 194.049 35.1432C194.628 35.339 195.207 35.5498 195.786 35.7757C196.366 36.0016 196.899 36.2802 197.387 36.6116C197.874 36.9429 198.263 37.3721 198.553 37.8992C198.858 38.4113 199.01 39.0664 199.01 39.8646C199.01 41.1447 198.591 42.1161 197.753 42.7787C196.929 43.4263 195.802 43.7501 194.369 43.7501Z" fill="white"/>
</g>
<defs>
<clipPath id="clip0_12_232">
<rect width="255" height="50" fill="white"/>
</clipPath>
</defs>
</svg>
