<svg width="162" height="32" viewBox="0 0 162 32" fill="none" xmlns="http://www.w3.org/2000/svg">
<path fill-rule="evenodd" clip-rule="evenodd" d="M32.0054 0.578313C32.0054 0.25892 31.7464 0 31.4269 0H0.57841C0.258963 0 0 0.25892 0 0.578313V7.76043C0 7.91383 0.0609394 8.06092 0.169412 8.1694L23.8346 31.8306C23.9431 31.9391 24.0902 32 24.2436 32H31.4269C31.7464 32 32.0054 31.7411 32.0054 31.4217V24.2396C32.0054 24.0862 31.9444 23.9391 31.8359 23.8306L16.9901 8.98723C16.6257 8.62294 16.8838 8 17.3991 8H31.4269C31.7464 8 32.0054 7.74106 32.0054 7.42169V0.578313Z" fill="#418100"/>
<path d="M0.57841 31.9999C0.258963 31.9999 0 31.741 0 31.4216V25.3961C0 24.8809 0.62303 24.6229 0.987409 24.9872L7.01394 31.0127C7.37829 31.377 7.12023 31.9999 6.60491 31.9999H0.57841Z" fill="#418100"/>
<path d="M0.578724 0.0240479H31.4273C31.7334 0.0240479 31.9816 0.272179 31.9816 0.578265V7.42164C31.9816 7.72771 31.7334 7.97586 31.4273 7.97586H17.3994C16.8626 7.97586 16.5938 8.62472 16.9734 9.00424L31.8192 23.8476C31.9231 23.9515 31.9816 24.0925 31.9816 24.2395V31.4216C31.9816 31.7277 31.7334 31.9759 31.4273 31.9759H24.2439C24.0969 31.9759 23.9559 31.9174 23.852 31.8135L0.186767 8.15229C0.0828142 8.04839 0.0244141 7.90737 0.0244141 7.76039V0.578265C0.0244141 0.272179 0.272587 0.0240479 0.578724 0.0240479ZM0.0244141 31.4216V25.3961C0.0244141 24.9024 0.621483 24.6551 0.970678 25.0042L6.99719 31.0297C7.34641 31.3789 7.09909 31.9759 6.60523 31.9759H0.578724C0.272587 31.9759 0.0244141 31.7277 0.0244141 31.4216Z" fill="url(#paint0_linear_11_45)"/>
<path d="M48.0759 14.988C47.3047 14.988 46.6395 14.8434 46.0804 14.5542C45.5213 14.2554 45.0296 13.841 44.6055 13.3109L45.3429 12.588C45.6803 13.0603 46.0708 13.4121 46.5142 13.6434C46.9673 13.8747 47.5023 13.9904 48.1193 13.9904C48.7556 13.9904 49.2713 13.8458 49.6666 13.5566C50.0618 13.2675 50.2594 12.8675 50.2594 12.3566C50.2594 11.9615 50.1678 11.6386 49.9847 11.388C49.8015 11.1277 49.5605 10.9205 49.2617 10.7663C48.9725 10.6024 48.6495 10.4579 48.2928 10.3326C47.9361 10.2073 47.5795 10.0771 47.2228 9.94219C46.8757 9.79761 46.5528 9.6193 46.2539 9.40725C45.9551 9.1952 45.7141 8.92532 45.5309 8.59761C45.3574 8.2699 45.2706 7.85063 45.2706 7.33978C45.2706 6.80002 45.4008 6.33737 45.6611 5.95183C45.9213 5.56629 46.278 5.27231 46.7311 5.0699C47.1842 4.85786 47.7 4.75183 48.2784 4.75183C48.9243 4.75183 49.4979 4.87713 49.9991 5.12773C50.5101 5.37834 50.9342 5.71569 51.2716 6.13978L50.5486 6.86267C50.2401 6.49641 49.9027 6.21689 49.5364 6.02412C49.1701 5.83135 48.7411 5.73496 48.2495 5.73496C47.671 5.73496 47.2083 5.8699 46.8613 6.13978C46.5142 6.40966 46.3407 6.78557 46.3407 7.26749C46.3407 7.6434 46.4275 7.94701 46.601 8.17834C46.7841 8.40966 47.0251 8.60243 47.324 8.75665C47.6228 8.91087 47.9458 9.05063 48.2928 9.17593C48.6495 9.29159 49.0062 9.42171 49.3629 9.56629C49.7196 9.71087 50.0425 9.894 50.3317 10.1157C50.6306 10.3374 50.8716 10.6217 51.0547 10.9687C51.2379 11.306 51.3295 11.7398 51.3295 12.2699C51.3295 13.1277 51.0355 13.7976 50.4474 14.2795C49.869 14.7518 49.0785 14.988 48.0759 14.988ZM58.5803 14.988C57.8573 14.988 57.2114 14.8289 56.6427 14.5109C56.0835 14.1832 55.6401 13.7398 55.3123 13.1807C54.9846 12.6121 54.8207 11.9759 54.8207 11.2723V4.89641H55.8907V11.2145C55.8907 11.7735 56.0064 12.2603 56.2378 12.6747C56.4691 13.0892 56.7873 13.4073 57.1922 13.6289C57.6067 13.8506 58.0694 13.9615 58.5803 13.9615C59.0913 13.9615 59.5444 13.8506 59.9396 13.6289C60.3445 13.4073 60.6626 13.094 60.894 12.6892C61.135 12.2747 61.2555 11.788 61.2555 11.2289V4.89641H62.3111V11.2868C62.3111 11.9904 62.1472 12.6217 61.8194 13.1807C61.5013 13.7398 61.0579 14.1832 60.4891 14.5109C59.93 14.8289 59.2937 14.988 58.5803 14.988ZM70.6802 14.988C69.9668 14.988 69.3016 14.8579 68.6847 14.5976C68.0773 14.3374 67.5471 13.9711 67.094 13.4988C66.641 13.0265 66.2891 12.482 66.0385 11.8651C65.7974 11.2386 65.6769 10.5687 65.6769 9.85545C65.6769 9.14219 65.7974 8.47713 66.0385 7.86027C66.2891 7.23376 66.6361 6.68918 67.0796 6.22653C67.5327 5.76388 68.0629 5.40243 68.6702 5.14219C69.2775 4.88195 69.9331 4.75183 70.6368 4.75183C71.3984 4.75183 72.078 4.88677 72.6757 5.15665C73.283 5.42653 73.8132 5.79761 74.2663 6.2699L73.5433 6.9928C73.1963 6.60725 72.7769 6.30846 72.2853 6.09641C71.7936 5.87472 71.2441 5.76388 70.6368 5.76388C70.0777 5.76388 69.5619 5.86508 69.0896 6.06749C68.6268 6.2699 68.2171 6.55906 67.8604 6.93496C67.5134 7.30123 67.2435 7.73496 67.0507 8.23617C66.8675 8.72773 66.7759 9.26749 66.7759 9.85545C66.7759 10.4434 66.8723 10.988 67.0651 11.4892C67.2579 11.9904 67.5279 12.4289 67.8749 12.8048C68.222 13.1711 68.6317 13.4554 69.104 13.6579C69.5764 13.8603 70.0921 13.9615 70.6513 13.9615C71.2875 13.9615 71.8515 13.8506 72.3431 13.6289C72.8444 13.4073 73.2686 13.1036 73.6156 12.7181L74.3386 13.4554C73.8952 13.9277 73.365 14.3036 72.748 14.5832C72.131 14.853 71.4418 14.988 70.6802 14.988ZM81.7432 14.988C81.0299 14.988 80.3647 14.8579 79.7477 14.5976C79.1404 14.3374 78.6102 13.9711 78.1571 13.4988C77.704 13.0265 77.3521 12.482 77.1015 11.8651C76.8605 11.2386 76.74 10.5687 76.74 9.85545C76.74 9.14219 76.8605 8.47713 77.1015 7.86027C77.3521 7.23376 77.6992 6.68918 78.1426 6.22653C78.5957 5.76388 79.1259 5.40243 79.7333 5.14219C80.3406 4.88195 80.9961 4.75183 81.6999 4.75183C82.4614 4.75183 83.1411 4.88677 83.7388 5.15665C84.3461 5.42653 84.8763 5.79761 85.3294 6.2699L84.6064 6.9928C84.2593 6.60725 83.84 6.30846 83.3483 6.09641C82.8567 5.87472 82.3072 5.76388 81.6999 5.76388C81.1407 5.76388 80.625 5.86508 80.1526 6.06749C79.6899 6.2699 79.2802 6.55906 78.9235 6.93496C78.5765 7.30123 78.3065 7.73496 78.1137 8.23617C77.9306 8.72773 77.839 9.26749 77.839 9.85545C77.839 10.4434 77.9354 10.988 78.1282 11.4892C78.321 11.9904 78.5909 12.4289 78.938 12.8048C79.285 13.1711 79.6947 13.4554 80.1671 13.6579C80.6395 13.8603 81.1552 13.9615 81.7143 13.9615C82.3506 13.9615 82.9145 13.8506 83.4062 13.6289C83.9075 13.4073 84.3316 13.1036 84.6787 12.7181L85.4017 13.4554C84.9582 13.9277 84.428 14.3036 83.8111 14.5832C83.1941 14.853 82.5048 14.988 81.7432 14.988ZM88.7034 14.8434V4.89641H89.759V14.8434H88.7034ZM89.3975 14.8434V13.8747H95.2539V14.8434H89.3975ZM89.3975 10.2169V9.27713H94.7912V10.2169H89.3975ZM89.3975 5.86508V4.89641H95.1672V5.86508H89.3975ZM101.158 14.988C100.387 14.988 99.7217 14.8434 99.1625 14.5542C98.6034 14.2554 98.1118 13.841 97.6876 13.3109L98.4251 12.588C98.7625 13.0603 99.1529 13.4121 99.5964 13.6434C100.049 13.8747 100.584 13.9904 101.201 13.9904C101.838 13.9904 102.353 13.8458 102.749 13.5566C103.144 13.2675 103.342 12.8675 103.342 12.3566C103.342 11.9615 103.25 11.6386 103.067 11.388C102.884 11.1277 102.643 10.9205 102.344 10.7663C102.055 10.6024 101.732 10.4579 101.375 10.3326C101.018 10.2073 100.662 10.0771 100.305 9.94219C99.9579 9.79761 99.6349 9.6193 99.3361 9.40725C99.0372 9.1952 98.7962 8.92532 98.6131 8.59761C98.4395 8.2699 98.3528 7.85063 98.3528 7.33978C98.3528 6.80002 98.4829 6.33737 98.7432 5.95183C99.0035 5.56629 99.3602 5.27231 99.8133 5.0699C100.266 4.85786 100.782 4.75183 101.361 4.75183C102.006 4.75183 102.58 4.87713 103.081 5.12773C103.592 5.37834 104.016 5.71569 104.354 6.13978L103.631 6.86267C103.322 6.49641 102.985 6.21689 102.619 6.02412C102.252 5.83135 101.823 5.73496 101.332 5.73496C100.753 5.73496 100.29 5.8699 99.9434 6.13978C99.5964 6.40966 99.4228 6.78557 99.4228 7.26749C99.4228 7.6434 99.5096 7.94701 99.6831 8.17834C99.8663 8.40966 100.107 8.60243 100.406 8.75665C100.705 8.91087 101.028 9.05063 101.375 9.17593C101.732 9.29159 102.088 9.42171 102.445 9.56629C102.802 9.71087 103.125 9.894 103.414 10.1157C103.713 10.3374 103.954 10.6217 104.137 10.9687C104.32 11.306 104.412 11.7398 104.412 12.2699C104.412 13.1277 104.118 13.7976 103.53 14.2795C102.951 14.7518 102.161 14.988 101.158 14.988ZM110.357 14.988C109.585 14.988 108.92 14.8434 108.361 14.5542C107.802 14.2554 107.31 13.841 106.886 13.3109L107.624 12.588C107.961 13.0603 108.352 13.4121 108.795 13.6434C109.248 13.8747 109.783 13.9904 110.4 13.9904C111.036 13.9904 111.552 13.8458 111.947 13.5566C112.343 13.2675 112.54 12.8675 112.54 12.3566C112.54 11.9615 112.449 11.6386 112.265 11.388C112.082 11.1277 111.841 10.9205 111.542 10.7663C111.253 10.6024 110.93 10.4579 110.574 10.3326C110.217 10.2073 109.86 10.0771 109.504 9.94219C109.157 9.79761 108.834 9.6193 108.535 9.40725C108.236 9.1952 107.995 8.92532 107.812 8.59761C107.638 8.2699 107.551 7.85063 107.551 7.33978C107.551 6.80002 107.682 6.33737 107.942 5.95183C108.202 5.56629 108.559 5.27231 109.012 5.0699C109.465 4.85786 109.981 4.75183 110.559 4.75183C111.205 4.75183 111.779 4.87713 112.28 5.12773C112.791 5.37834 113.215 5.71569 113.552 6.13978L112.829 6.86267C112.521 6.49641 112.184 6.21689 111.817 6.02412C111.451 5.83135 111.022 5.73496 110.53 5.73496C109.952 5.73496 109.489 5.8699 109.142 6.13978C108.795 6.40966 108.621 6.78557 108.621 7.26749C108.621 7.6434 108.708 7.94701 108.882 8.17834C109.065 8.40966 109.306 8.60243 109.605 8.75665C109.904 8.91087 110.227 9.05063 110.574 9.17593C110.93 9.29159 111.287 9.42171 111.644 9.56629C112 9.71087 112.323 9.894 112.613 10.1157C112.911 10.3374 113.152 10.6217 113.336 10.9687C113.519 11.306 113.61 11.7398 113.61 12.2699C113.61 13.1277 113.316 13.7976 112.728 14.2795C112.15 14.7518 111.359 14.988 110.357 14.988ZM122.295 10.853V9.91328H125.23C125.635 9.91328 125.996 9.83135 126.315 9.66749C126.642 9.50364 126.898 9.27231 127.081 8.97352C127.274 8.66508 127.37 8.29882 127.37 7.87472C127.37 7.45063 127.274 7.08918 127.081 6.79039C126.898 6.48195 126.642 6.24581 126.315 6.08195C125.996 5.90846 125.635 5.82171 125.23 5.82171H122.295V4.89641H125.302C125.9 4.89641 126.435 5.02171 126.907 5.27231C127.38 5.51328 127.751 5.85545 128.021 6.29882C128.3 6.74219 128.44 7.26749 128.44 7.87472C128.44 8.47231 128.3 8.99761 128.021 9.45063C127.751 9.894 127.38 10.241 126.907 10.4916C126.435 10.7326 125.9 10.853 125.302 10.853H122.295ZM121.615 14.8434V4.89641H122.671V14.8434H121.615ZM130.133 14.8434L134.21 4.89641H135.006L139.04 14.8434H137.898L134.384 6.05304H134.803L131.26 14.8434H130.133ZM131.998 12.2554V11.3157H137.204V12.2554H131.998ZM146.034 14.988C145.321 14.988 144.656 14.8579 144.039 14.5976C143.432 14.3374 142.901 13.9711 142.448 13.4988C141.995 13.0265 141.643 12.482 141.393 11.8651C141.152 11.2386 141.031 10.5687 141.031 9.85545C141.031 9.14219 141.152 8.47713 141.393 7.86027C141.643 7.23376 141.99 6.68918 142.434 6.22653C142.887 5.76388 143.417 5.40243 144.025 5.14219C144.632 4.88195 145.287 4.75183 145.991 4.75183C146.753 4.75183 147.432 4.88677 148.03 5.15665C148.637 5.42653 149.168 5.79761 149.621 6.2699L148.898 6.9928C148.551 6.60725 148.131 6.30846 147.64 6.09641C147.148 5.87472 146.598 5.76388 145.991 5.76388C145.432 5.76388 144.916 5.86508 144.444 6.06749C143.981 6.2699 143.571 6.55906 143.215 6.93496C142.868 7.30123 142.598 7.73496 142.405 8.23617C142.222 8.72773 142.13 9.26749 142.13 9.85545C142.13 10.4434 142.227 10.988 142.419 11.4892C142.612 11.9904 142.882 12.4289 143.229 12.8048C143.576 13.1711 143.986 13.4554 144.458 13.6579C144.931 13.8603 145.446 13.9615 146.006 13.9615C146.642 13.9615 147.206 13.8506 147.697 13.6289C148.199 13.4073 148.623 13.1036 148.97 12.7181L149.693 13.4554C149.249 13.9277 148.719 14.3036 148.102 14.5832C147.485 14.853 146.796 14.988 146.034 14.988ZM159.3 14.8434L153.863 9.65304L159.184 4.89641H160.601L154.933 9.94219L154.947 9.33496L160.746 14.8434H159.3ZM152.995 14.8434V4.89641H154.051V14.8434H152.995ZM45.6466 27.8554V27.4217H48.8423C49.7099 27.4217 50.4763 27.2289 51.1415 26.8434C51.8163 26.4579 52.3417 25.9326 52.7177 25.2675C53.0936 24.5928 53.2816 23.8217 53.2816 22.9542C53.2816 22.0964 53.0936 21.335 52.7177 20.6699C52.3417 19.9952 51.8163 19.4699 51.1415 19.094C50.4763 18.7085 49.7099 18.5157 48.8423 18.5157H45.7044V18.082H48.8423C49.5653 18.082 50.2257 18.2024 50.8234 18.4434C51.4211 18.6844 51.9416 19.0217 52.3851 19.4554C52.8285 19.8892 53.1708 20.4048 53.4118 21.0024C53.6528 21.6 53.7733 22.2554 53.7733 22.9687C53.7733 23.6723 53.6528 24.3229 53.4118 24.9205C53.1708 25.5181 52.8285 26.0386 52.3851 26.482C51.9513 26.9157 51.4355 27.253 50.8378 27.494C50.2401 27.735 49.5846 27.8554 48.8712 27.8554H45.6466ZM45.4875 27.8554V18.082H45.9503V27.8554H45.4875ZM60.8193 23.6916L56.8716 18.082H57.4356L60.9205 23.041H60.7759L64.3042 18.082H64.8248L60.8482 23.6916H60.8193ZM60.6168 27.8554V23.2145H61.0796V27.8554H60.6168ZM68.0224 27.8554V18.082H68.3694L68.4851 18.6892V27.8554H68.0224ZM74.7753 27.8554L68.2682 18.7036L68.3694 18.082L74.8766 27.2338L74.7753 27.8554ZM74.7753 27.8554L74.6597 27.2482V18.082H75.1224V27.8554H74.7753ZM78.7297 27.8554L82.7063 18.082H83.1401L87.0878 27.8554H86.5816L82.8075 18.4868H83.0244L79.2214 27.8554H78.7297ZM80.3927 24.6313V24.2121H85.4393V24.6313H80.3927ZM90.5712 27.8554V18.082H90.9183L95.2997 25.253H94.9816L99.3631 18.082H99.7101V27.8554H99.2474V18.8627L99.3631 18.8916L95.3142 25.5277H94.9671L90.9183 18.8916L91.034 18.8627V27.8554H90.5712ZM104.021 27.8554V18.082H104.483V27.8554H104.021ZM113.224 28C112.53 28 111.884 27.8747 111.287 27.6241C110.689 27.3639 110.168 27.0024 109.725 26.5398C109.281 26.0771 108.934 25.5422 108.684 24.935C108.443 24.3181 108.322 23.6579 108.322 22.9542C108.322 22.241 108.443 21.5807 108.684 20.9735C108.925 20.3663 109.262 19.8362 109.696 19.3832C110.139 18.9301 110.655 18.5783 111.243 18.3277C111.831 18.0675 112.467 17.9374 113.152 17.9374C113.856 17.9374 114.511 18.0723 115.118 18.3422C115.726 18.6121 116.251 18.988 116.695 19.4699L116.362 19.8024C115.976 19.3591 115.504 19.0121 114.945 18.7615C114.395 18.5109 113.798 18.3856 113.152 18.3856C112.535 18.3856 111.961 18.5012 111.431 18.7326C110.911 18.9639 110.453 19.2868 110.057 19.7012C109.662 20.1157 109.354 20.6024 109.132 21.1615C108.92 21.7109 108.814 22.3085 108.814 22.9542C108.814 23.6 108.925 24.2024 109.146 24.7615C109.368 25.3205 109.672 25.8121 110.057 26.2362C110.453 26.6506 110.915 26.9735 111.446 27.2048C111.985 27.4362 112.564 27.5518 113.181 27.5518C113.836 27.5518 114.444 27.4265 115.003 27.1759C115.572 26.9157 116.049 26.5639 116.434 26.1205L116.767 26.453C116.333 26.935 115.813 27.3157 115.205 27.5952C114.598 27.8651 113.938 28 113.224 28ZM122.933 28C122.181 28 121.525 27.8554 120.966 27.5663C120.407 27.2675 119.93 26.8627 119.535 26.3518L119.867 26.0338C120.272 26.5832 120.73 26.9783 121.241 27.2193C121.752 27.4506 122.325 27.5663 122.962 27.5663C123.675 27.5663 124.258 27.3928 124.711 27.0458C125.164 26.6988 125.391 26.2169 125.391 25.6C125.391 25.1374 125.295 24.7615 125.102 24.4723C124.919 24.1735 124.673 23.9326 124.364 23.7494C124.056 23.5663 123.718 23.4073 123.352 23.2723C122.986 23.1277 122.619 22.988 122.253 22.853C121.887 22.7085 121.549 22.535 121.241 22.3326C120.932 22.1205 120.682 21.8554 120.489 21.5374C120.306 21.2097 120.214 20.7952 120.214 20.294C120.214 19.8217 120.325 19.4121 120.547 19.0651C120.778 18.7085 121.096 18.4338 121.501 18.241C121.906 18.0386 122.378 17.9374 122.918 17.9374C123.545 17.9374 124.104 18.0579 124.596 18.2988C125.087 18.5398 125.507 18.8868 125.854 19.3398L125.521 19.6579C125.193 19.2434 124.817 18.9253 124.393 18.7036C123.979 18.482 123.487 18.3711 122.918 18.3711C122.263 18.3711 121.728 18.5398 121.313 18.8771C120.899 19.2145 120.691 19.682 120.691 20.2795C120.691 20.7133 120.783 21.0699 120.966 21.3494C121.159 21.6193 121.41 21.8458 121.718 22.0289C122.027 22.2024 122.364 22.3566 122.73 22.4916C123.097 22.6169 123.463 22.7518 123.829 22.8964C124.196 23.041 124.533 23.2193 124.842 23.4313C125.15 23.6434 125.396 23.9181 125.579 24.2554C125.772 24.5832 125.868 25.0024 125.868 25.5133C125.868 26.3326 125.603 26.9542 125.073 27.3783C124.552 27.7928 123.839 28 122.933 28Z" fill="black"/>
<defs>
<linearGradient id="paint0_linear_11_45" x1="0.000260293" y1="-1.50918e-05" x2="32.0003" y2="31.9838" gradientUnits="userSpaceOnUse">
<stop stop-color="#003642"/>
<stop offset="1" stop-color="#00A58A"/>
</linearGradient>
</defs>
</svg>
