<svg width="32" height="32" viewBox="0 0 32 32" fill="none" xmlns="http://www.w3.org/2000/svg">
<path d="M0.578724 0.0240479H31.4273C31.7334 0.0240479 31.9816 0.272179 31.9816 0.578265V7.42164C31.9816 7.72771 31.7334 7.97586 31.4273 7.97586H17.3994C16.8626 7.97586 16.5938 8.62472 16.9734 9.00424L31.8192 23.8476C31.9231 23.9515 31.9816 24.0925 31.9816 24.2395V31.4216C31.9816 31.7277 31.7334 31.9759 31.4273 31.9759H24.2439C24.0969 31.9759 23.9559 31.9174 23.852 31.8135L0.186767 8.15229C0.0828142 8.04839 0.0244141 7.90737 0.0244141 7.76039V0.578265C0.0244141 0.272179 0.272587 0.0240479 0.578724 0.0240479ZM0.0244141 31.4216V25.3961C0.0244141 24.9024 0.621483 24.6551 0.970678 25.0042L6.99719 31.0297C7.34641 31.3789 7.09909 31.9759 6.60523 31.9759H0.578724C0.272587 31.9759 0.0244141 31.7277 0.0244141 31.4216Z" fill="url(#paint0_linear_42_4)"/>
<defs>
<linearGradient id="paint0_linear_42_4" x1="0.000260293" y1="-1.50918e-05" x2="32.0003" y2="31.9838" gradientUnits="userSpaceOnUse">
<stop stop-color="#003642"/>
<stop offset="1" stop-color="#00A58A"/>
</linearGradient>
</defs>
</svg>
